<?xml version="1.0" encoding="UTF-8" standalone="no"?>
<!-- Created with Inkscape (http://www.inkscape.org/) -->

<svg
   width="210mm"
   height="297mm"
   viewBox="0 0 210 297"
   version="1.1"
   id="svg1"
   xml:space="preserve"
   xmlns="http://www.w3.org/2000/svg"
   xmlns:svg="http://www.w3.org/2000/svg"><defs
     id="defs1" /><g
     id="layer1"><path
       style="fill:#000000"
       d="m 95.399594,242.01758 c -5.204412,-1.09264 -11.104988,-3.36004 -15.919207,-6.11724 -3.826141,-2.19132 -12.885379,-8.2478 -15.610417,-10.43624 -2.953546,-2.37194 -8.258834,-7.67928 -10.006465,-10.01032 -1.709594,-2.28031 -3.602913,-6.04084 -4.196123,-8.33438 -1.024686,-3.96176 -0.308928,-10.13158 1.647154,-14.19844 0.916901,-1.90631 3.66991,-5.64919 4.494648,-6.11074 0.388609,-0.21748 0.339954,-0.53206 -0.484001,-3.12932 l -0.916043,-2.88754 -1.106811,0.0858 c -0.710485,0.0551 -1.346711,-0.0713 -1.776776,-0.35314 -1.690589,-1.10772 -3.185102,-7.00639 -3.035561,-11.98101 0.02826,-0.94002 0.227984,-1.3505 1.158623,-2.38125 1.031778,-1.14276 1.117872,-1.34804 1.044329,-2.49015 -0.07758,-1.20479 -0.100292,-1.23554 -0.708093,-0.95861 -0.879563,0.40076 -1.843321,0.0896 -2.209105,-0.71319 -0.657826,-1.44377 -0.0913,-6.00449 1.007802,-8.11317 0.293886,-0.56383 0.534338,-1.2079 0.534338,-1.43127 0,-0.22337 0.1389,-0.66566 0.308667,-0.98287 0.193656,-0.36185 0.317678,-2.10526 0.332849,-4.67896 0.02227,-3.77755 0.08279,-4.26973 0.764655,-6.21888 0.40726,-1.16417 1.154669,-2.8169 1.660909,-3.67273 0.50624,-0.85584 0.868731,-1.60778 0.805535,-1.67097 -0.201695,-0.2017 -3.170608,1.41458 -5.611084,3.05468 -3.449822,2.31841 -8.339755,6.92266 -10.537045,9.92143 -0.73091,0.99752 -1.519325,1.28311 -2.550147,0.92377 -0.973967,-0.33953 -1.313923,-1.08866 -1.313923,-2.8954 0,-1.59843 0.506049,-2.64632 2.655609,-5.499 l 1.615419,-2.14382 -0.514502,-0.72877 c -0.282976,-0.40083 -0.893133,-1.48212 -1.355905,-2.40289 -2.814999,-5.60092 -2.592213,-12.79006 0.601465,-19.40879 1.502898,-3.11468 4.787296,-7.74339 6.711251,-9.45819 5.030687,-4.48377 11.891773,-5.34003 18.208776,-2.27243 1.006696,0.48886 1.922614,0.83182 2.035373,0.76213 0.112758,-0.0697 0.205015,-0.40621 0.205015,-0.74782 0,-0.34161 0.708878,-2.81922 1.575284,-5.505792 0.868308,-2.69247 1.81999,-6.29555 2.120538,-8.02838 0.29989,-1.72903 0.650256,-3.59116 0.778592,-4.13806 0.176415,-0.75178 0.145853,-1.04332 -0.125279,-1.19505 -0.19724,-0.11038 -1.107656,-1.19401 -2.023147,-2.40807 -0.915491,-1.21405 -2.051568,-2.70034 -2.524616,-3.30286 -1.295957,-1.65066 -1.737312,-3.41226 -1.393744,-5.56291 0.274826,-1.72034 0.145509,-3.17136 -0.269019,-3.01859 -0.115907,0.0427 -0.824921,0.85158 -1.575587,1.79747 -2.383888,3.00384 -5.635029,6.40996 -6.859553,7.18653 -1.33311,0.84543 -2.170314,0.94632 -2.781446,0.33519 -0.580162,-0.58016 -0.521089,-1.66507 0.26549,-4.87589 0.374317,-1.52797 1.023372,-4.61906 1.442344,-6.8691 1.184365,-6.360484 2.620873,-8.751355 6.305354,-10.494393 0.790474,-0.373954 3.403079,-1.166498 5.80579,-1.761209 3.913725,-0.968712 4.619083,-1.232778 6.774719,-2.536265 6.177457,-3.735433 11.719946,-5.082248 15.340355,-3.72768 0.794571,0.297288 3.373399,1.829094 5.730728,3.404015 l 4.286052,2.863492 1.88597,-0.724985 c 1.03728,-0.398742 3.054002,-0.994384 4.481602,-1.323648 3.6958,-0.852408 5.85228,-0.666656 10.53625,0.907554 1.98378,0.666719 4.01342,1.212217 4.5103,1.212217 0.49688,0 2.02895,-0.25872 3.40458,-0.574934 3.22027,-0.740235 7.64971,-0.786627 10.83553,-0.113486 3.76111,0.794695 11.00139,3.311045 14.21123,4.939091 l 3.00818,1.525765 2.17207,-1.014969 c 7.71934,-3.607118 13.61254,-3.291219 20.05196,1.074868 1.44192,0.977661 9.46911,7.664177 11.93622,9.942677 0.8476,0.78281 2.61322,1.8044 5.56868,3.22206 4.76647,2.28634 5.94594,3.20859 6.97323,5.45248 0.80148,1.75068 1.29821,4.16779 1.80974,8.80638 0.71747,6.50598 0.50234,8.01507 -1.14262,8.01507 -1.91476,0 -4.54115,-2.75011 -9.61063,-10.06335 l -0.45215,-0.65228 -1.02166,1.06327 c -0.79532,0.8277 -1.12388,1.4725 -1.48302,2.91042 -0.89725,3.5923 -2.05162,4.78288 -6.02472,6.2137 -1.54251,0.55549 -2.9073,1.29237 -4.1813,2.25756 -2.09886,1.590092 -3.4946,2.088792 -5.3477,1.910732 l -1.23946,-0.11909 -0.17371,1.34837 c -0.22473,1.74434 -0.76643,3.92396 -1.73217,6.96966 -1.08435,3.41977 -1.22438,4.15237 -1.69439,8.86477 -0.71959,7.21464 -2.10771,10.22587 -7.3525,15.94964 -0.89117,0.97255 -1.87747,2.32097 -2.19178,2.9965 -0.31431,0.67553 -1.06753,2.03665 -1.67381,3.02472 -1.66418,2.71217 -3.90623,7.28197 -4.37594,8.91913 -0.22962,0.80037 -0.50906,2.46724 -0.62096,3.70417 -0.1724,1.90565 -0.27382,2.24335 -0.66437,2.21221 -0.3761,-0.03 -0.46251,0.18912 -0.46958,1.19063 -0.014,1.9877 -0.46129,4.9118 -0.76689,5.01366 -0.15553,0.0518 -0.28316,0.41176 -0.28363,0.79982 -4.6e-4,0.38806 -0.17477,1.71759 -0.38735,2.95451 -0.21257,1.23693 -0.50463,3.43349 -0.64902,4.88125 -0.25959,2.60293 -0.25403,2.65016 0.49817,4.23334 0.92519,1.94726 1.59738,5.07266 1.59738,7.42716 0,1.671 0.0731,1.87098 1.67275,4.57521 3.29165,5.56464 4.66118,9.78114 4.87162,14.99867 0.0991,2.45645 0.0266,3.56421 -0.32028,4.89479 -0.63735,2.44485 -2.13598,5.14471 -3.90601,7.03689 -0.83838,0.89622 -1.52433,1.81892 -1.52433,2.05043 0,0.72789 -2.49393,5.32621 -4.12465,7.60504 -2.9686,4.14843 -9.14154,10.11593 -13.07327,12.63816 -3.97156,2.5478 -9.90868,5.01251 -12.37637,5.13787 -1.67805,0.0853 -1.90157,-0.36275 -1.30873,-2.62309 0.2545,-0.97031 0.43143,-1.79272 0.39318,-1.82756 -0.0382,-0.0349 -0.90297,0.11295 -1.92162,0.32843 -1.09184,0.23097 -2.63059,0.34486 -3.74867,0.27748 l -1.89659,-0.11431 -0.47853,1.06119 c -0.63993,1.41909 -2.72207,3.51692 -4.1207,4.15171 -1.52571,0.69248 -5.515572,0.67888 -8.893596,-0.0303 z m 8.036886,-0.35772 c 1.76186,-0.73615 5.51241,-4.82977 4.67941,-5.10744 -0.16922,-0.0564 -0.71819,-0.38115 -1.21994,-0.72164 l -0.91227,-0.61909 -0.31068,0.75004 c -0.41735,1.00758 -2.04997,2.62693 -3.09922,3.07404 -1.23484,0.52619 -2.661802,0.45048 -6.128202,-0.32517 -11.710899,-2.62045 -23.472494,-9.42302 -33.633942,-19.45291 -4.761893,-4.70024 -7.211789,-7.9279 -8.786346,-11.57574 -0.818817,-1.89699 -0.869326,-2.19195 -0.84388,-4.92817 0.0431,-4.63454 1.403569,-9.21185 3.535177,-11.89413 0.44186,-0.55601 0.803383,-1.10375 0.803383,-1.21719 0,-0.11345 -0.239608,-0.76525 -0.532462,-1.44845 l -0.532462,-1.24219 -1.449697,1.76861 c -3.169458,3.86669 -4.626696,7.58814 -4.83096,12.33717 -0.155145,3.60705 0.195142,5.98859 1.250798,8.50394 2.215556,5.27909 8.526526,12.08398 16.313664,17.59044 8.11062,5.73519 16.098451,10.29649 21.398828,12.2194 6.235643,2.26221 12.111101,3.20256 14.298801,2.28848 z m 14.92257,-1.54862 c 0.87319,-0.30271 0.93562,-0.41421 1.50616,-2.69018 0.32737,-1.30592 0.55981,-2.40981 0.51653,-2.45309 -0.16785,-0.16785 -3.12231,1.10035 -3.18815,1.36851 -0.0383,0.15618 -0.26466,1.07741 -0.50292,2.04718 -0.23826,0.96977 -0.4332,1.83298 -0.4332,1.91823 0,0.25128 1.11983,0.14969 2.10158,-0.19065 z m 3.93267,-1.39639 c 5.58575,-2.3029 9.56695,-5.15994 15.13633,-10.86232 4.33915,-4.44278 7.44474,-8.76066 8.72733,-12.13414 l 0.24462,-0.6434 -0.93116,0.44404 c -0.69509,0.33146 -1.16184,0.88259 -1.84098,2.17377 -3.65603,6.95084 -14.8997,16.74923 -21.28497,18.54897 -0.65484,0.18457 -1.29539,0.42624 -1.42345,0.53704 -0.25298,0.21889 -1.20893,2.88434 -1.03446,2.88434 0.0586,0 1.14167,-0.42673 2.40674,-0.9483 z m -19.89694,-0.27331 c 0.82573,-0.39184 3.54928,-3.08161 3.53996,-3.49606 -0.002,-0.0974 -0.16555,-0.64125 -0.36302,-1.20852 -0.33251,-0.95522 -0.5032,-1.08411 -2.31112,-1.74515 -4.464092,-1.63224 -9.413448,-4.26889 -15.181255,-8.08746 -4.074634,-2.6976 -6.310858,-4.42645 -9.55554,-7.38746 l -2.147206,-1.95949 -1.335042,2.56486 c -1.318301,2.53269 -3.763254,8.06012 -3.763254,8.50778 0,0.67382 8.085368,5.6959 12.964584,8.05272 4.405,2.12776 7.071758,3.11764 11.509375,4.27218 3.857216,1.00354 5.326348,1.11116 6.642518,0.4866 z m 22.41109,-3.72937 c 4.23649,-2.21485 12.14878,-8.93732 15.5711,-13.22958 l 1.31089,-1.64411 -0.3142,-1.59704 -0.3142,-1.59704 h -1.64172 -1.64171 l -1.81524,2.4474 c -2.12861,2.8699 -7.41919,8.21935 -10.10164,10.21404 -1.17835,0.87623 -1.94369,1.64951 -2.04939,2.07068 -0.0928,0.3697 -0.73846,1.22714 -1.43482,1.90541 -0.90361,0.88015 -1.31108,1.51033 -1.42316,2.20105 l -0.15706,0.96782 1.05425,-0.37196 c 0.57984,-0.20458 1.91044,-0.81958 2.9569,-1.36667 z m -9.93024,0.99793 c 3.06653,-0.63279 6.63743,-2.30264 7.58735,-3.54806 0.37051,-0.48576 0.67366,-1.00429 0.67366,-1.15228 0,-0.49134 -1.40705,-0.0101 -2.57324,0.88003 -1.55964,1.1905 -4.93933,2.23748 -7.78563,2.41187 -2.63198,0.16127 -3.44782,0.0152 -4.15499,-0.74385 -0.38339,-0.41152 -0.76603,-0.52266 -1.58318,-0.45982 l -1.07759,0.0829 0.42931,0.88268 c 1.01944,2.09599 3.74397,2.62475 8.48431,1.64656 z m 0.58809,-2.69578 c 1.23693,-0.28111 2.90381,-0.84163 3.70417,-1.2456 1.21104,-0.61125 1.44632,-0.84296 1.40226,-1.38096 -0.0291,-0.35557 -0.0964,-1.53945 -0.14948,-2.63086 -0.0667,-1.3721 -0.31716,-2.525 -0.8116,-3.73655 -0.39329,-0.9637 -0.6407,-1.94596 -0.54982,-2.18281 0.12225,-0.31857 0.0115,-0.43064 -0.42561,-0.43064 -0.85279,0 -5.25864,1.06366 -5.4082,1.30564 -0.0695,0.11238 0.004,0.55064 0.16422,0.97392 0.25886,0.68579 0.1562,1.03698 -0.94265,3.22493 -0.67822,1.35043 -1.4724,3.07538 -1.76483,3.83323 -0.29244,0.75785 -0.84908,1.6401 -1.23699,1.96057 -0.71776,0.59296 -0.71577,0.59705 0.46228,0.94928 0.64967,0.19425 3.15469,-0.0944 5.55625,-0.64015 z m -6.07753,-1.28867 c 0.10721,-0.21828 0.46158,-1.11125 0.78748,-1.98437 0.32589,-0.87313 1.06489,-2.40029 1.64222,-3.39369 0.57733,-0.9934 1.0092,-1.83295 0.9597,-1.86567 -0.0495,-0.0327 -0.78542,-0.19817 -1.63538,-0.36769 -4.92019,-0.98131 -18.43008,-9.35381 -26.570115,-16.46634 -1.872191,-1.63586 -2.245773,-1.86102 -2.600005,-1.56704 -0.414032,0.34362 -3.831923,5.41775 -4.769819,7.08118 l -0.498009,0.88326 1.058333,0.91494 c 2.256204,1.95051 5.38221,4.40933 7.859598,6.1821 5.498551,3.93467 14.417087,8.86419 18.891367,10.44178 2.09282,0.7379 4.54669,0.80916 4.87463,0.14154 z m -13.134363,-6.59929 c -0.307323,-0.12968 -0.824675,-0.57313 -1.149672,-0.98543 -1.255231,-1.59245 -0.03714,-4.05694 2.005172,-4.05694 1.205561,0 1.853011,0.36358 2.346361,1.31762 0.588662,1.13833 0.48999,2.01442 -0.32799,2.91219 -0.78099,0.85718 -1.970856,1.1936 -2.873871,0.81256 z m 2.302161,-1.03953 c 0.4425,-0.35832 0.6114,-0.76973 0.6114,-1.4893 0,-1.21555 -0.81375,-1.98438 -2.100317,-1.98438 -0.995305,0 -1.974267,0.98398 -1.974267,1.98438 0,0.32455 0.246767,0.90381 0.54837,1.28723 0.667245,0.84827 2.002483,0.94083 2.914814,0.20207 z m 25.883932,5.16942 c 1.58564,-1.05197 5.86434,-4.98874 7.835,-7.20884 2.64805,-2.98325 4.62205,-5.32097 4.62205,-5.47367 0,-0.0721 -0.56554,-0.2721 -1.25677,-0.44442 -0.69122,-0.17233 -2.22261,-0.82542 -3.40308,-1.45132 l -2.14631,-1.13799 -1.4196,1.86144 c -1.85948,2.43826 -5.76429,5.83157 -7.57348,6.58144 -0.77489,0.32118 -1.37076,0.65039 -1.32414,0.73159 1.08837,1.89559 1.38281,2.93856 1.41324,5.00606 0.0216,1.46406 0.14543,2.28234 0.36617,2.41876 0.44823,0.27702 1.72872,-0.11465 2.88692,-0.88305 z m 3.34647,-6.88171 c -1.12973,-1.12973 -0.8121,-3.49137 0.55325,-4.11346 0.99242,-0.45218 1.64206,-0.35392 2.35165,0.35567 1.36182,1.36181 0.53827,3.90658 -1.38355,4.27521 -0.67875,0.13019 -0.97423,0.0297 -1.52135,-0.51742 z m 2.56215,-0.75536 c 0.58435,-0.6758 0.59703,-2.00691 0.0251,-2.63884 -0.62433,-0.68988 -1.5492,-0.59976 -2.18874,0.21329 -1.55042,1.97104 0.53505,4.30899 2.16361,2.42555 z m -58.707502,1.44137 c 2.110666,-6.55977 7.617713,-15.83411 11.581022,-19.50343 0.891797,-0.82565 1.516525,-1.59033 1.388284,-1.69929 -2.6246,-2.23003 -8.350014,-6.64468 -8.617574,-6.64468 -0.219952,0 -3.97069,4.96613 -5.695164,7.54063 -2.239268,3.34304 -4.672172,7.64057 -6.474332,11.43639 -0.846342,1.78262 -1.538804,3.3354 -1.538804,3.45063 0,0.44495 7.980493,7.72897 8.473019,7.73356 0.07625,7.1e-4 0.473851,-1.0405 0.883549,-2.31381 z m -2.610667,-2.71198 c 1.038012,-3.48432 4.829401,-10.62365 7.550948,-14.21873 1.357776,-1.79358 4.099288,-4.83127 4.360219,-4.83127 0.08469,0 -0.576814,0.8632 -1.470014,1.91823 -3.130874,3.69811 -7.024762,10.02309 -9.287567,15.08613 -1.138551,2.54751 -1.487377,3.16608 -1.153586,2.04564 z m -4.484196,-2.11667 c 0.668472,-2.44375 3.504117,-8.00706 6.136099,-12.03854 1.721215,-2.63643 5.629917,-7.58886 6.580305,-8.33742 0.614245,-0.4838 0.547441,-0.38594 -1.537371,2.252 -3.349628,4.23834 -7.357921,10.64717 -9.92875,15.875 -0.787172,1.60073 -1.349799,2.61276 -1.250283,2.24896 z m 48.202055,5.13182 c -0.0879,-0.0879 -0.31612,-0.0973 -0.50712,-0.0209 -0.21106,0.0845 -0.14837,0.14716 0.15986,0.15985 0.27891,0.0115 0.43518,-0.051 0.34726,-0.13896 z m -0.12019,-1.17404 c 2.36587,-1.10712 5.30056,-1.68184 7.00557,-1.37194 0.99422,0.1807 1.49705,0.15013 2.01775,-0.12269 0.94811,-0.49677 0.87393,-0.74601 -0.37016,-1.24379 -2.37937,-0.95204 -7.25578,-0.24001 -10.44304,1.52485 -1.76851,0.97926 -2.03509,1.38223 -1.14928,1.73727 0.9298,0.37267 1.0814,0.34565 2.93916,-0.5237 z m -2.95347,-2.53139 c -0.97402,-3.39618 -2.69207,-4.82334 -10.677442,-8.86959 -5.778842,-2.92819 -11.975757,-6.65651 -12.885112,-7.75221 -0.530204,-0.63886 -0.867447,-0.5134 -2.14277,0.79711 l -1.179567,1.21212 1.058333,0.93367 c 5.133404,4.52876 14.866726,11.17283 21.620058,14.75808 l 2.66523,1.41494 0.88248,-0.85706 c 0.77057,-0.74837 0.85412,-0.95598 0.65879,-1.63706 z m 3.23967,-1.76654 c -0.0835,-2.4941 -2.34695,-5.51456 -5.51831,-7.36393 -0.87312,-0.50916 -2.83766,-1.50522 -4.36562,-2.21347 -6.790106,-3.14736 -11.702151,-6.26311 -21.563548,-13.67795 -3.783542,-2.84486 -7.712604,-5.70899 -8.73125,-6.36474 -2.16662,-1.39474 -4.93508,-2.896 -5.077626,-2.75345 -0.05467,0.0547 0.597357,1.32657 1.448957,2.82644 1.539473,2.71138 1.561685,2.73507 3.867568,4.12608 3.192116,1.92562 5.875048,3.89028 10.571378,7.74124 5.200929,4.26472 7.115537,5.49587 14.485329,9.31445 6.666202,3.45402 8.687262,4.70732 9.997542,6.19964 0.89904,1.02396 1.74782,2.67133 2.00006,3.88191 l 0.14889,0.71461 1.38729,-0.64886 c 1.36978,-0.64067 1.3868,-0.66315 1.34934,-1.78197 z m 15.09399,-2.9918 1.5623,-1.74991 -0.90084,-0.69783 c -0.49546,-0.38381 -1.39041,-1.14539 -1.98876,-1.6924 -0.59836,-0.54702 -1.20884,-0.99457 -1.35662,-0.99457 -0.51628,0 -5.23487,5.19088 -5.98892,6.58834 -0.81781,1.51564 -0.71086,1.86569 0.57264,1.87427 0.66377,0.004 2.56644,0.89447 2.83251,1.32499 0.2033,0.32894 3.12021,-2.24754 5.26769,-4.65289 z m -13.36912,2.10714 c 0.57473,-3.1192 2.26594,-5.69205 5.64388,-8.5861 1.06128,-0.90925 1.9657,-1.7419 2.00982,-1.85031 0.0441,-0.10842 -0.39254,-0.82174 -0.97035,-1.58516 -2.28169,-3.01463 -4.74073,-8.60676 -5.86791,-13.34424 -0.57375,-2.41149 -1.04557,-7.89237 -1.04652,-12.15693 l -6.4e-4,-2.89651 -1.28541,1.31269 c -2.57145,2.62603 -6.32895,3.88533 -11.67917,3.91418 -4.85454,0.0262 -8.150571,-1.22603 -11.517602,-4.37572 -1.995989,-1.86715 -3.185178,-3.64203 -3.831437,-5.71846 -0.620569,-1.9939 -0.707983,-3.78778 -0.42954,-8.81489 0.361061,-6.51874 -0.06359,-8.20671 -4.566569,-18.15183 -1.435566,-3.17054 -3.112092,-7.08647 -3.725614,-8.70206 -1.019055,-2.68349 -1.333037,-3.19817 -3.631767,-5.95313 -3.296552,-3.95082 -4.336101,-5.49534 -6.481708,-9.63026 l -1.784797,-3.43959 -0.01398,2.24896 c -0.0101,1.62371 -0.183191,2.74548 -0.62261,4.0349 -0.66378,1.94777 -0.53864,2.25099 0.390487,0.94615 0.985515,-1.38403 0.863849,-0.44016 -0.418337,3.24545 -0.667943,1.91998 -1.171213,3.5341 -1.118377,3.58693 0.05284,0.0528 0.312225,-0.14279 0.576422,-0.43472 0.707457,-0.78173 1.000439,-0.64554 0.537429,0.24982 -0.222018,0.42934 -0.40367,0.97482 -0.40367,1.21219 0,0.23737 -0.364389,1.93992 -0.809755,3.78345 -0.791996,3.27836 -2.255599,6.82044 -3.102546,7.5085 -0.351583,0.28562 -0.393524,0.27656 -0.257129,-0.0556 0.08964,-0.21828 0.598418,-1.44828 1.130622,-2.73333 0.532203,-1.28505 0.913078,-2.39102 0.846387,-2.45771 -0.201285,-0.20128 -2.812165,5.2329 -3.145428,6.54677 -0.264262,1.04184 -0.243239,1.36482 0.141631,2.17587 0.390814,0.82358 0.414929,1.24772 0.178253,3.13524 -0.150536,1.20055 -0.275525,3.07891 -0.277753,4.17413 -0.0022,1.09523 -0.09645,2.13674 -0.209372,2.31447 -0.41825,0.65829 0.100146,3.86643 0.78717,4.87147 0.808957,1.18341 2.87358,9.27037 2.868989,11.2376 -0.0024,1.04737 0.348139,2.20681 1.560055,5.15937 2.584615,6.29684 2.857614,6.83075 3.661277,7.16037 4.214369,1.72851 6.295956,3.03071 14.0901,8.81444 9.949869,7.38342 13.72409,9.78083 21.057729,13.37604 4.88248,2.39355 7.46471,4.0708 8.63621,5.60948 1.11987,1.47089 1.8305,3.11923 1.98339,4.60059 0.2027,1.96405 0.70288,1.81259 1.09814,-0.33253 z M 76.784337,174.17878 c -0.05946,-0.50933 -0.01295,-0.92605 0.103345,-0.92605 0.1163,0 0.211455,0.41672 0.211455,0.92605 0,0.50932 -0.0465,0.92604 -0.103345,0.92604 -0.05684,0 -0.151994,-0.41672 -0.211455,-0.92604 z m -0.32534,-2.71198 c -0.793498,-7.02081 -1.622691,-10.7164 -4.34994,-19.38701 -0.710552,-2.25903 -1.438827,-4.99746 -1.618388,-6.08542 -0.179562,-1.08795 -0.598042,-2.9306 -0.929956,-4.09476 -0.632533,-2.21857 -1.371891,-6.92059 -1.126757,-7.16572 0.07853,-0.0785 0.226938,0.60865 0.329788,1.52709 0.255213,2.27901 2.757225,12.03659 4.532732,17.67717 2.171765,6.89945 2.850545,10.26828 3.425193,16.99948 0.202353,2.37028 -0.0069,2.7919 -0.262672,0.52917 z m -8.334806,-37.52674 c 0.0127,-0.30823 0.07539,-0.37092 0.159853,-0.15985 0.07643,0.19099 0.06703,0.4192 -0.02089,0.50711 -0.08792,0.0879 -0.150453,-0.0684 -0.138965,-0.34726 z m 0,-1.05833 c 0.0127,-0.30823 0.07539,-0.37092 0.159853,-0.15986 0.07643,0.191 0.06703,0.4192 -0.02089,0.50712 -0.08792,0.0879 -0.150453,-0.0684 -0.138965,-0.34726 z m 75.520729,83.9508 c 0.43905,-0.74325 0.4376,-0.76721 -0.0378,-0.62535 -0.27192,0.0811 -0.80309,0.2209 -1.18038,0.3106 -0.65895,0.15667 -0.67493,0.20447 -0.40565,1.21332 l 0.28032,1.05023 0.44351,-0.58796 c 0.24392,-0.32339 0.64895,-0.93576 0.90004,-1.36084 z m -25.01626,0.10476 c 0.60359,-1.7275 1.89084,-3.447 4.19277,-5.60071 l 2.26922,-2.1231 -1.08031,-1.0803 -1.0803,-1.0803 -2.92313,2.87753 c -2.44761,2.40944 -3.07568,3.20034 -3.86093,4.86191 -0.5158,1.09141 -1.00996,2.34982 -1.09813,2.79648 l -0.16032,0.81211 1.70383,-0.25463 c 1.63873,-0.24491 1.71658,-0.29111 2.0373,-1.20899 z m -55.981108,-1.55253 c 0.950061,-2.55316 2.997814,-6.84169 4.247502,-8.8954 l 0.946883,-1.55608 -1.429253,-1.75121 c -1.999056,-2.44937 -5.408774,-7.28197 -6.511464,-9.22872 -0.509323,-0.89918 -0.996019,-1.63842 -1.081547,-1.64275 -0.312702,-0.0158 -1.564079,2.89384 -2.224073,5.17134 -1.00751,3.47671 -1.332629,6.94 -0.960609,10.23277 0.276791,2.44989 0.401858,2.8516 1.294128,4.15661 0.921517,1.34779 4.529694,5.49084 4.824184,5.53932 0.07276,0.012 0.475172,-0.89967 0.894249,-2.02588 z m 79.009918,0.18542 c 3.82228,-0.61446 6.58761,-2.80828 8.47133,-6.72057 1.2604,-2.61771 1.70905,-5.04058 1.49342,-8.06489 -0.35247,-4.94335 -1.86305,-8.96743 -5.79557,-15.43893 -3.80312,-6.25856 -6.13026,-11.11662 -8.11098,-16.93216 -2.63833,-7.74635 -4.01759,-13.42011 -5.16774,-21.25816 -1.04684,-7.13401 -2.28439,-11.98253 -3.89789,-15.27135 l -0.61861,-1.26092 -3.70416,-0.0811 c -7.13486,-0.1562 -16.57789,-2.72433 -21.42979,-5.82806 l -1.47174,-0.94146 -1.04189,0.53154 c -0.573042,0.29234 -2.147232,0.84513 -3.498201,1.22842 -1.350967,0.38329 -2.498288,0.73248 -2.549602,0.77597 -0.14838,0.12577 1.136459,2.81086 2.290776,4.78733 0.581709,0.99602 2.281865,3.47714 3.778127,5.51361 3.9793,5.41597 7.4819,10.74613 8.98684,13.67592 1.59422,3.10363 3.16152,7.08118 3.16152,8.02343 0,0.65651 0.0256,0.66848 0.58803,0.27456 0.76141,-0.53331 1.38098,-0.52173 1.93895,0.0362 0.5613,0.56131 0.38866,2.73585 -0.43968,5.5381 -0.53169,1.79866 -0.53835,1.96863 -0.14519,3.70417 0.58637,2.58836 0.9384,6.65672 1.23344,14.25442 0.33131,8.53193 1.05028,11.75393 3.9596,17.74465 3.67212,7.56142 11.43094,14.38462 17.86797,15.71329 1.50131,0.30989 2.15226,0.30925 4.10104,-0.004 z m -6.84976,-26.47184 c -0.16301,-0.46759 -0.25007,-0.89647 -0.19348,-0.95306 0.0566,-0.0566 0.23626,0.27968 0.39926,0.74727 0.163,0.46759 0.25007,0.89646 0.19348,0.95305 -0.0566,0.0566 -0.23626,-0.27968 -0.39926,-0.74726 z m -1.60533,-4.39015 c -1.51215,-4.24991 -3.31982,-10.30618 -5.43302,-18.20233 -4.29607,-16.0526 -6.15119,-21.92494 -8.48378,-26.85521 -0.79176,-1.67349 -1.25116,-2.80458 -1.0209,-2.51354 0.67288,0.85049 3.14524,6.13018 4.16949,8.90389 1.35528,3.67017 3.40482,10.53829 5.23847,17.55444 2.42864,9.29282 4.59891,17.11179 5.76253,20.76113 0.57848,1.81424 1.01262,3.33779 0.96475,3.38566 -0.0479,0.0479 -0.58677,-1.31744 -1.19754,-3.03404 z m -77.991313,22.60965 c -0.784966,-4.68041 0.448704,-11.19697 2.754239,-14.54858 0.614712,-0.89362 0.647953,-1.06629 0.345736,-1.79591 -0.183901,-0.44397 -0.465498,-0.76352 -0.62577,-0.71009 -0.536087,0.17869 -2.517634,4.26438 -3.081395,6.35342 -0.306497,1.13574 -0.741176,3.21758 -0.965953,4.6263 -0.379324,2.37731 -0.375702,2.66615 0.05041,4.02044 0.491633,1.56253 1.619866,4.23723 1.787338,4.23723 0.05582,0 -0.06325,-0.98226 -0.264601,-2.18281 z m 13.798337,-4.28932 c 0.38049,-0.64926 1.581465,-2.31859 2.668832,-3.70962 l 1.977033,-2.52916 -1.436969,-1.94307 c -1.813558,-2.45229 -4.05548,-6.14252 -5.599459,-9.21677 -1.246433,-2.48179 -3.512482,-7.98685 -4.087396,-9.92977 -0.183005,-0.61846 -0.348164,-1.12448 -0.36702,-1.12448 -0.01886,0 -0.803681,0.74749 -1.744057,1.66109 -1.427181,1.38654 -4.546129,3.69409 -5.359511,3.96521 -0.376543,0.12552 1.635937,5.45049 3.523331,9.32266 0.993029,2.03729 2.540882,4.83058 3.439673,6.2073 1.603139,2.45561 6.00451,8.47708 6.196291,8.47708 0.0536,0 0.408762,-0.53122 0.789252,-1.18047 z m 5.941494,-7.64947 0.589837,-0.62785 -1.800487,-1.26684 c -0.990267,-0.69676 -1.968337,-1.39649 -2.173488,-1.55496 -0.320946,-0.24791 -0.320946,-0.19342 0,0.39046 0.561842,1.02212 2.468227,3.68033 2.641985,3.68391 0.08378,0.002 0.417744,-0.2794 0.742153,-0.62472 z m 70.491162,-14.12267 c -0.31899,-3.36423 -1.5806,-8.63362 -1.66286,-6.94531 -0.0177,0.3638 -0.12784,1.49489 -0.2447,2.51354 -0.20962,1.82719 -0.19845,1.87786 0.83125,3.77031 0.57405,1.05503 1.07786,1.91823 1.1196,1.91823 0.0417,0 0.0222,-0.56555 -0.0433,-1.25677 z m -38.21507,-1.22321 c 2.31504,-0.65049 4.04606,-1.63949 5.56386,-3.17886 l 1.42817,-1.44846 -0.0546,-2.06217 c -0.03,-1.13419 -0.0872,-2.09477 -0.12702,-2.13461 -0.0398,-0.0398 -0.4533,0.51532 -0.91879,1.23369 -0.8341,1.28724 -2.4944,2.69017 -4.23046,3.57468 -3.78612,1.929 -10.516042,1.88883 -14.740415,-0.088 -2.169032,-1.01501 -4.657549,-3.35074 -5.526189,-5.18689 -0.7135,-1.50822 -1.254893,-4.27969 -1.051653,-5.38358 0.07141,-0.38786 -0.165053,-1.59817 -0.525476,-2.68958 l -0.655314,-1.98437 0.05136,4.89479 0.05136,4.89479 0.971783,2.03501 c 1.703822,3.56799 5.192149,6.43214 9.346968,7.67449 1.299892,0.38869 2.258572,0.45417 5.291666,0.36145 2.1437,-0.0655 4.30262,-0.28139 5.12473,-0.51239 z m -52.452251,-0.57029 c 3.265924,-1.70232 6.449459,-4.47465 6.978251,-6.07691 0.254441,-0.77096 0.127279,-1.59385 -0.927725,-6.00343 -0.672421,-2.81051 -1.396282,-5.37791 -1.60858,-5.70533 -0.560939,-0.86512 -1.391246,-0.73972 -3.30892,0.49973 -2.053123,1.327 -5.442995,4.01469 -6.257836,4.96158 -0.734615,0.85366 -0.795707,2.86429 -0.186899,6.15113 0.82764,4.46827 1.989827,7.10683 3.130289,7.10683 0.214655,0 1.196295,-0.42012 2.18142,-0.9336 z m -2.400895,-1.69079 c -0.09722,-0.15731 -0.04155,-0.28602 0.123727,-0.28602 0.165275,0 -0.05974,-0.30312 -0.500034,-0.67361 -1.31999,-1.11069 -2.282942,-3.39454 -2.281814,-5.41181 0.0014,-2.42742 0.421412,-3.2043 2.741857,-5.071 3.465947,-2.78821 4.718614,-3.43706 5.372737,-2.78294 0.201359,0.20136 0.828802,2.2939 1.394318,4.65009 l 1.028211,4.28399 -0.529705,0.7167 c -0.646413,0.87461 -3.274484,3.04404 -4.716713,3.89356 -1.323934,0.77985 -2.399545,1.0581 -2.632584,0.68104 z m 2.678834,-1.51893 c 0.802364,-0.53258 2.110036,-1.56348 2.905937,-2.29089 l 1.447092,-1.32256 -0.794917,-0.5033 c -1.256531,-0.79558 -2.149154,-2.87385 -2.149154,-5.00382 0,-0.9806 0.122394,-2.10483 0.271986,-2.49828 0.149592,-0.39346 0.223226,-0.76414 0.16363,-0.82374 -0.265674,-0.26567 -5.884525,4.52176 -6.219701,5.29937 -0.512122,1.18813 -0.26635,3.97577 0.481883,5.46571 0.623129,1.24082 1.790333,2.64583 2.198011,2.64583 0.130014,0 0.892869,-0.43574 1.695233,-0.96832 z m 3.689344,-7.1379 c -0.359877,-1.43517 -0.736268,-3.17641 -0.836425,-3.86943 -0.229229,-1.58609 -0.534476,-1.79918 -0.745824,-0.52065 -0.263584,1.59452 -0.194766,3.06607 0.205601,4.39639 0.394438,1.31062 1.775679,3.36896 1.936657,2.88602 0.05187,-0.15561 -0.200133,-1.45716 -0.560009,-2.89233 z m 85.313538,-4.1969 c 0.33761,-2.03729 0.6803,-3.7637 0.76152,-3.83646 0.0812,-0.0728 0.17648,-0.42995 0.21168,-0.79375 0.0352,-0.3638 0.17883,-1.85208 0.31919,-3.30729 0.14037,-1.45521 0.2604,-2.68362 0.26674,-2.72981 0.006,-0.0462 0.24966,-0.008 0.5407,0.084 0.49129,0.15592 0.52917,0.0475 0.52917,-1.51409 0,-3.75296 1.47239,-7.13094 6.49029,-14.89008 0.38596,-0.59681 0.0548,-0.39794 -1.33484,0.80152 -4.03827,3.4857 -6.59925,5.52422 -10.48625,8.347 -4.53557,3.29377 -6.82648,5.35933 -6.68211,6.02482 1.68037,7.74633 4.40788,16.56238 6.76561,21.86833 l 1.41084,3.175 0.29681,-4.7625 c 0.16325,-2.61938 0.57304,-6.42938 0.91065,-8.46667 z M 106.396,175.73943 c 2.03626,-0.53038 3.41234,-1.30465 5.01857,-2.82375 2.12026,-2.00526 2.54935,-2.82594 2.32613,-4.44896 l -0.184,-1.33782 -0.61207,1.32108 c -0.6499,1.40275 -1.25913,1.89234 -2.35475,1.89234 -0.51876,0 -0.763,0.20989 -1.05363,0.90546 -0.49834,1.19269 -1.50118,1.8367 -2.60484,1.67281 -0.6505,-0.0966 -1.05046,0.0316 -1.63951,0.52532 -0.64202,0.53818 -0.94463,0.62066 -1.71979,0.46874 -0.51737,-0.1014 -1.14904,-0.16656 -1.4037,-0.14481 -0.25466,0.0217 -0.96904,0.0348 -1.5875,0.029 -0.618462,-0.006 -1.691582,-0.008 -2.384702,-0.005 -1.008279,0.004 -1.397587,-0.13198 -1.947374,-0.68177 -0.379666,-0.37967 -0.858331,-0.62148 -1.069676,-0.54037 -0.517853,0.19871 -2.174599,-0.51915 -2.369339,-1.02664 -0.08628,-0.22485 -0.391425,-0.40882 -0.678092,-0.40882 -0.815628,0 -2.03147,-1.39923 -2.217305,-2.55174 -0.09753,-0.60484 -0.533324,-1.45099 -1.070487,-2.07847 l -0.905996,-1.05833 0.159468,1.19062 c 0.238705,1.78222 1.629339,4.45073 3.070362,5.89175 3.25555,3.25555 9.775671,4.62974 15.228231,3.20953 z m -4.46806,-2.66677 c 0.23308,-0.41649 0.27701,-0.41649 0.6935,0 0.68182,0.68182 1.86309,0.56272 2.50433,-0.25248 0.3016,-0.38343 0.54837,-0.91921 0.54837,-1.19063 0,-0.27141 0.11118,-0.49348 0.24706,-0.49348 0.13589,0 0.19309,0.29765 0.12712,0.66146 -0.111,0.61214 -0.0437,0.66145 0.90255,0.66145 0.63818,0 1.17962,-0.17403 1.44052,-0.46302 0.43761,-0.48473 1.15073,-2.90094 0.9233,-3.12837 -0.0724,-0.0724 -0.85779,0.30109 -1.74544,0.82986 -1.45811,0.86859 -1.73688,0.94448 -2.88789,0.78617 -1.06277,-0.14616 -1.39191,-0.0825 -1.98521,0.38422 -0.5597,0.44026 -0.82182,0.50024 -1.23046,0.28154 -0.72892,-0.3901 -1.491392,-0.34561 -1.868722,0.10904 -0.27844,0.3355 -0.41963,0.31412 -1.06198,-0.16079 -0.40747,-0.30125 -1.101692,-0.57612 -1.542722,-0.61081 -0.532021,-0.0419 -1.115196,-0.3953 -1.732924,-1.05028 -1.146149,-1.21528 -2.104187,-1.24007 -2.239378,-0.058 -0.197994,1.73126 1.434212,3.3407 2.630376,2.59368 0.401786,-0.25092 0.498797,-0.23755 0.498797,0.0687 0,0.80121 0.83752,1.27769 1.972411,1.12214 0.59518,-0.0816 1.25808,-0.0371 1.4731,0.0989 0.652852,0.41283 2.060212,0.29862 2.333292,-0.18934 z m -9.426393,-3.72253 c 0.09183,-1.05056 -0.0015,-1.39449 -0.56867,-2.09613 -0.373192,-0.46165 -0.797594,-0.80948 -0.943115,-0.77295 -0.145521,0.0365 -0.300544,0.68134 -0.344496,1.43293 -0.06815,1.16545 0.01767,1.46411 0.583286,2.02972 0.36476,0.36476 0.775684,0.6632 0.913167,0.6632 0.137482,0 0.299405,-0.56555 0.359828,-1.25677 z m 8.683093,0.95548 c 0.72402,0.25239 0.94172,0.21668 1.53788,-0.25225 0.55618,-0.4375 0.91637,-0.51299 1.80892,-0.37914 0.7647,0.11467 1.36007,0.0401 1.89702,-0.23755 l 0.78255,-0.40468 -0.52111,-0.99848 c -0.36434,-0.69809 -0.4859,-1.33678 -0.40406,-2.12296 0.0644,-0.61847 0.0686,-1.12448 0.009,-1.12448 -0.0593,0 -0.81496,0.29765 -1.67931,0.66146 -2.81626,1.18534 -4.902182,0.79941 -7.176291,-1.32775 -1.434913,-1.34219 -2.459655,-1.56574 -2.706785,-0.59048 -0.154761,0.61074 -2.005796,2.68526 -2.211993,2.47907 -0.06311,-0.0631 0.251212,-0.61994 0.698493,-1.23739 0.44728,-0.61745 0.813237,-1.19478 0.813237,-1.28294 0,-0.0882 -0.366153,-0.32237 -0.813673,-0.52046 -1.053704,-0.46642 -2.314258,-2.20741 -3.807824,-5.25912 -0.658793,-1.34606 -1.312623,-2.44739 -1.452956,-2.44739 -0.140333,0 -0.390033,0.50091 -0.554887,1.11313 -0.516989,1.91995 0.159444,6.00994 1.467796,8.87489 0.672703,1.47304 1.043443,1.72417 1.269456,0.85989 0.08403,-0.32134 0.360896,-0.52916 0.704951,-0.52916 0.592191,0 1.745183,1.06021 1.989242,1.82918 0.09735,0.3067 0.451105,0.45602 1.125698,0.47515 0.756104,0.0214 1.161552,0.22688 1.752148,0.88788 0.479793,0.53698 1.054905,0.88253 1.531181,0.92 0.419526,0.033 1.028725,0.23659 1.353775,0.45241 0.43346,0.28781 0.74467,0.3224 1.16743,0.12978 0.391172,-0.17823 0.847462,-0.16814 1.419832,0.0314 z m 10.09912,-0.74223 c 1.13741,-0.89469 3.54699,-7.92016 3.33799,-9.73239 -0.15835,-1.37305 -0.8474,-0.9798 -2.81871,1.60869 -2.16755,2.84616 -3.77474,4.40472 -4.54216,4.40472 -0.60618,0 -0.61946,0.0672 -0.2614,1.32292 0.42419,1.48762 0.59811,1.64786 1.44077,1.32748 0.89938,-0.34194 1.46722,0.0272 1.46722,0.95387 0,0.76561 0.49622,0.80697 1.37629,0.11471 z m -6.75141,-4.68929 c 2.066,-0.68195 2.18458,-0.76423 2.5805,-1.79047 0.50792,-1.31655 2.80904,-4.42278 3.71729,-5.01789 0.36566,-0.23959 0.66483,-0.60452 0.66483,-0.81096 0,-0.20645 -0.89517,-2.16406 -1.98927,-4.35025 -1.86688,-3.73034 -4.43329,-7.74837 -10.747012,-16.82575 -2.472654,-3.55498 -4.153232,-6.58159 -4.737403,-8.53175 l -0.336521,-1.12341 -3.337555,0.16892 c -3.662558,0.18537 -6.244878,-0.12536 -8.195731,-0.98617 -0.640952,-0.28282 -1.218629,-0.46095 -1.283728,-0.39585 -0.244588,0.24459 0.850763,3.03634 2.362504,6.02138 1.793829,3.54204 4.26435,7.4601 4.533949,7.1905 0.100568,-0.10057 0.188077,-0.84762 0.194464,-1.66011 0.0064,-0.81249 0.194027,-1.95351 0.416977,-2.53559 0.22295,-0.58208 0.515772,-1.58569 0.650715,-2.23024 0.321874,-1.53742 1.034251,-2.93299 1.723369,-3.37612 0.48215,-0.31005 0.64198,-0.28664 1.236621,0.1811 0.74196,0.58363 1.60708,2.79962 1.470021,3.76544 -0.05614,0.39562 -0.296038,0.63133 -0.700899,0.68869 -0.461782,0.0654 -0.567971,0.1976 -0.425106,0.52916 1.111681,2.58003 1.099624,3.84207 -0.03944,4.12796 -0.397152,0.0997 -0.630041,0.30771 -0.551097,0.49228 0.0752,0.17581 0.400582,0.9288 0.723078,1.67333 0.71024,1.63968 0.553377,2.62744 -0.488257,3.07451 -0.396167,0.17004 -0.75324,0.32791 -0.793494,0.35083 -0.04025,0.0229 0.347871,0.66735 0.862499,1.43209 1.236499,1.83743 1.386038,2.52126 0.792398,3.62359 -0.478506,0.88853 -0.477883,0.89372 0.193563,1.61376 0.988975,1.06056 1.35442,1.90703 1.310228,3.03484 -0.02219,0.56618 0.190458,1.43193 0.488116,1.9873 1.155477,2.15587 0.443373,4.86567 -1.17209,4.46021 -0.73412,-0.18425 -1.896908,-1.93742 -2.161091,-3.25833 -0.09121,-0.45606 -0.494047,-1.05724 -0.918906,-1.37135 -0.763085,-0.56417 -1.570486,-2.58927 -1.570486,-3.93904 0,-0.35131 -0.221598,-0.95477 -0.492441,-1.34104 -0.270842,-0.38627 -0.6374,-1.1492 -0.814573,-1.69541 -0.177173,-0.54621 -1.222843,-2.57027 -2.323712,-4.49792 -4.483268,-7.8503 -8.070065,-16.14747 -8.429082,-19.49861 -0.108072,-1.00876 -0.02343,-0.86071 0.521729,0.91255 1.133776,3.68791 3.831305,9.43598 8.057493,17.16944 1.69865,3.10834 1.88029,3.34659 2.046509,2.68432 0.100324,-0.39972 0.03153,-1.35568 -0.152867,-2.12436 -0.184521,-0.76916 -0.255821,-1.82111 -0.15857,-2.3395 0.160524,-0.85567 0.03498,-1.13307 -1.370859,-3.02913 -2.592364,-3.49632 -4.762266,-8.17114 -5.224962,-11.25662 -0.142119,-0.94772 -0.38873,-1.34455 -1.318593,-2.12182 -1.489547,-1.24511 -3.227777,-4.06533 -5.195718,-8.42987 -0.872195,-1.93437 -1.763694,-3.69563 -1.981109,-3.91392 -0.351238,-0.35263 -0.452381,-0.32725 -0.907398,0.22775 -0.281653,0.34355 -0.512097,0.79003 -0.512097,0.99219 0,0.20216 -0.119063,0.36756 -0.264584,0.36756 -0.145521,0 -0.264583,-0.30306 -0.264583,-0.67348 0,-0.7655 1.071939,-1.97235 1.751862,-1.97235 0.24915,0 0.371957,0.081 0.272906,0.18009 -0.09905,0.0991 0.111411,0.48601 0.467694,0.8599 0.356283,0.37389 1.450287,2.22761 2.431121,4.11939 3.716649,7.16844 5.51147,8.8584 10.279255,9.67869 3.358852,0.57789 9.605987,-0.21501 14.16591,-1.79798 l 1.455213,-0.50517 0.0801,-1.7034 c 0.11181,-2.37731 0.48624,-2.51249 0.71271,-0.25731 0.18632,1.85525 0.21018,1.9032 1.28601,2.58472 3.72795,2.36159 14.54616,5.43486 20.39945,5.79514 2.86539,0.17637 6.74372,-0.36167 9.77584,-1.35619 2.78649,-0.91396 7.43417,-3.31902 11.75296,-6.08188 1.93921,-1.24057 3.63585,-2.25558 3.77031,-2.25558 0.52756,0 0.2071,-0.52847 -0.41515,-0.68464 -0.95348,-0.23931 -0.53725,-0.65009 0.47145,-0.46528 2.22268,0.40724 4.15693,2.37736 4.15693,4.23403 0,0.85364 -3.02656,7.09311 -5.17771,10.67422 -0.83042,1.38245 -2.49291,3.82323 -3.69442,5.42396 -2.44948,3.26336 -8.86742,10.56227 -9.50131,10.80551 -0.41858,0.16063 -0.53509,0.86893 -0.26059,1.58427 0.11145,0.29045 0.58481,-0.0354 1.79441,-1.23513 0.90367,-0.89631 3.30075,-2.76074 5.32685,-4.14319 5.0319,-3.43336 11.3881,-9.13595 14.48108,-12.992 5.06715,-6.31726 5.86361,-8.10158 6.42427,-14.39238 0.40445,-4.538 0.56091,-5.33136 1.98274,-10.05416 0.56953,-1.89178 1.17664,-4.268 1.34912,-5.28051 0.64318,-3.775522 -0.27548,-10.574702 -2.18105,-16.142432 -0.96661,-2.82426 -1.30672,-3.52063 -4.84996,-9.93019 -3.13025,-5.66249 -3.63121,-6.61458 -3.4804,-6.61458 0.0605,0 0.56121,0.69692 1.11274,1.54871 l 1.00277,1.54872 0.9217,-0.92171 c 2.09377,-2.09376 5.90853,-2.93441 9.30184,-2.04981 6.08904,1.58734 14.2502,8.74453 21.68344,19.01597 3.94361,5.44939 6.31061,7.69753 7.58831,7.20723 0.39118,-0.15011 0.42277,-0.524 0.27637,-3.27128 -0.22261,-4.17754 -1.06386,-9.63142 -1.78111,-11.54698 -0.90249,-2.41029 -2.18738,-3.6007 -5.76727,-5.34319 -1.69512,-0.82509 -3.39038,-1.65508 -3.76725,-1.84442 -0.67805,-0.34065 -0.67477,-0.32432 0.31363,1.56194 0.79276,1.51291 2.82198,6.69695 4.05789,10.36669 0.47269,1.40355 -1.82798,-3.34913 -2.77871,-5.74022 -2.3294,-5.85839 -2.964,-6.65753 -10.0073,-12.60209 -7.08945,-5.983512 -9.1506,-7.265301 -13.50771,-8.400181 -3.09122,-0.805162 -6.31628,-0.310173 -11.54292,1.771633 -1.93494,0.770702 -2.74246,1.216785 -2.64805,1.462815 0.0747,0.194685 -0.80908,-0.121116 -1.96396,-0.70178 -2.54994,-1.282086 -6.359,-2.814243 -10.14806,-4.081955 -1.55295,-0.519574 -2.88298,-0.94468 -2.95563,-0.94468 -0.0727,0 0.17789,0.468419 0.55676,1.040931 0.82315,1.243859 0.9343,2.917192 0.27806,4.186206 -0.54666,1.057139 -1.75165,1.834629 -4.60021,2.968191 -3.04839,1.21308 -4.31021,2.08633 -5.40247,3.73883 -2.27396,3.4403 -3.27563,6.2166 -4.06954,11.27947 -0.59496,3.79417 -0.42737,5.53198 0.79445,8.23804 0.53817,1.19193 1.25309,2.97449 1.58871,3.96124 0.73796,2.16972 4.14222,8.614112 6.13242,11.608902 2.88367,4.3393 5.22504,6.55247 8.61406,8.14244 2.22407,1.04342 2.23446,1.17731 0.028,0.36068 -4.6961,-1.73808 -8.62862,-6.10876 -12.69943,-14.114422 -0.96165,-1.89118 -2.19409,-4.6301 -2.73876,-6.08649 -0.54468,-1.45638 -1.32607,-3.42188 -1.73643,-4.36777 -0.65231,-1.50358 -0.74385,-2.03578 -0.72808,-4.23333 0.0199,-2.7716 1.03871,-8.26628 1.97237,-10.63732 0.745,-1.89194 2.24912,-4.32964 3.53209,-5.72438 1.1152,-1.21237 2.58054,-2.06321 4.80933,-2.79253 4.26088,-1.394264 5.58555,-3.9148 3.54086,-6.73741 -0.63183,-0.872224 -0.9975,-1.086236 -2.55,-1.492428 -2.89014,-0.756167 -7.63758,-0.825684 -10.60699,-0.155319 -3.64311,0.82246 -4.73858,0.741129 -8.97178,-0.666093 -2.91478,-0.968948 -3.92097,-1.193278 -4.92116,-1.097172 -0.69149,0.06644 -1.25725,0.03915 -1.25725,-0.06065 0,-0.456648 -4.07177,0.39961 -8.99584,1.891747 -1.964532,0.595312 -3.750469,1.133021 -3.96875,1.194911 -0.218282,0.06189 0.187403,-0.203598 0.901522,-0.589974 l 1.298397,-0.7025 -0.901522,-0.544299 C 94.04127,55.939947 92.385428,54.894794 90.85746,53.916749 86.068991,50.851674 85.507719,50.61975 82.919959,50.636886 c -2.592145,0.01716 -5.581881,0.910061 -9.290143,2.774539 -2.985249,1.500954 -6.934081,4.167891 -9.341947,6.309306 l -0.772715,0.687207 0.575827,-0.836771 c 0.316706,-0.460224 1.200209,-1.399564 1.96334,-2.087422 1.04406,-0.941076 1.223781,-1.19881 0.726054,-1.041216 -0.363802,0.115189 -2.076851,0.602101 -3.806776,1.082025 -7.32046,2.030881 -8.722186,3.652117 -10.366884,11.990344 -0.481023,2.43867 -1.120138,5.39567 -1.420255,6.57112 -0.300118,1.17544 -0.545668,2.56382 -0.545668,3.08527 0,0.85446 0.07081,0.94811 0.716824,0.94811 0.968024,0 5.922935,-5.04232 9.337343,-9.50205 7.33431,-9.579732 11.36768,-13.453098 16.239363,-15.595152 1.763359,-0.775339 1.885628,-0.704401 0.297095,0.172371 -2.560311,1.413135 -6.502293,4.535293 -7.508908,5.947262 -0.335792,0.471011 -0.322658,0.489458 0.163309,0.229377 1.130657,-0.60511 5.153193,-0.92837 7.608429,-0.61143 2.635473,0.340205 5.315711,1.433273 6.116019,2.494266 l 0.496317,0.657982 1.457209,-1.110022 c 2.350486,-1.790471 2.386164,-1.690375 0.143322,0.402101 -1.1592,1.081484 -3.385093,3.156965 -4.946429,4.612165 -3.4774,3.24104 -5.26099,5.20063 -7.233019,7.94677 -3.264088,4.54538 -4.030978,6.75409 -6.212896,17.89368 -0.303978,1.55193 -0.909576,3.87365 -1.345773,5.15938 -2.052804,6.050782 -2.312448,8.954202 -1.158755,12.957562 0.848328,2.94372 3.509353,9.01805 5.121224,11.69023 1.250377,2.07289 5.769814,8.17572 5.521163,7.45551 -0.07536,-0.21828 -0.922265,-2.54 -1.882008,-5.15938 -1.924697,-5.25297 -2.435098,-7.22311 -2.63898,-10.18645 -0.158262,-2.30026 0.0862,-1.65296 0.749416,1.98437 0.308932,1.6943 1.236256,4.40395 3.214465,9.39271 1.529152,3.8563 3.200806,8.08302 3.714787,9.39271 0.513981,1.30969 2.004672,4.7625 3.312647,7.67291 2.52112,5.60983 3.74907,8.99635 4.036115,11.13106 0.269333,2.003 0.424691,2.22089 0.761732,1.06832 0.360936,-1.23429 1.013093,-1.74593 1.689261,-1.3253 0.254661,0.15843 1.058333,1.36285 1.785937,2.6765 2.571344,4.64243 3.048564,5.08635 5.259482,4.89247 l 1.290732,-0.11319 -0.136235,-2.55034 c -0.103743,-1.94211 -0.374595,-3.30756 -1.135683,-5.72535 -2.485771,-7.89668 -2.816029,-13.51489 -1.156777,-19.67862 0.288941,-1.07335 0.711216,-2.20444 0.93839,-2.51354 l 0.413043,-0.56201 -0.162849,0.55823 c -0.678406,2.32552 -0.998319,4.80232 -1.12401,8.70219 -0.17001,5.27494 0.115488,7.34526 1.767023,12.81375 1.152875,3.81735 1.526828,6.6319 1.115907,8.39883 -0.24224,1.04161 -0.209887,1.14956 0.570423,1.90326 0.95194,0.91948 2.904183,1.8709 3.869933,1.88601 0.3638,0.006 1.63594,-0.31131 2.82696,-0.70445 z m -0.83667,-9.87761 c 0.36237,-2.76817 0.64692,-6.1703 0.65096,-7.78316 0.003,-1.00652 0.069,-1.76557 0.14783,-1.68679 0.0788,0.0788 0.13851,1.55714 0.13274,3.28524 -0.008,2.24955 -0.15853,3.70565 -0.53163,5.12638 -0.28662,1.09141 -0.46658,1.56766 -0.3999,1.05833 z m 20.63425,-30.95193 c -0.19514,-0.31575 0.0525,-0.79807 0.40983,-0.79807 0.32194,0 0.32403,0.71613 0.003,0.91475 -0.13546,0.0837 -0.32108,0.0312 -0.41249,-0.11668 z m -7.76113,-2.82666 c 0.12874,-0.66378 0.74701,-0.75492 0.74701,-0.11012 0,0.32499 -0.17084,0.55121 -0.41628,0.55121 -0.24639,0 -0.38136,-0.18001 -0.33073,-0.44109 z m 11.72722,0.17651 c -0.19294,-0.31218 0.0573,-0.79375 0.41249,-0.79375 0.13693,0 0.24896,0.23812 0.24896,0.52917 0,0.55802 -0.38493,0.712 -0.66145,0.26458 z m 27.66755,-1.39756 c -0.0227,-2.19437 -0.43102,-3.22625 -1.91665,-4.84411 -1.81657,-1.97827 -3.91798,-2.64473 -6.23963,-1.97889 -0.47198,0.13537 -0.85815,0.19909 -0.85815,0.14161 0,-0.23788 1.13053,-0.68177 2.28631,-0.8977 1.8043,-0.33708 3.46507,0.23253 4.98503,1.70977 1.60744,1.56225 2.24552,2.99853 2.22925,5.01792 -0.0188,2.33581 -0.46272,3.11322 -0.48616,0.8514 z m -34.32313,-0.86281 c -0.19964,-0.52025 0.0366,-0.75911 0.55429,-0.56046 0.23254,0.0892 0.33759,0.32755 0.24768,0.56186 -0.20057,0.52269 -0.60113,0.52199 -0.80197,-0.001 z m -22.035112,-0.64335 c -2.485018,-0.9178 -4.300304,-2.17255 -6.898864,-4.76857 -3.558779,-3.5553 -4.36947,-5.28619 -5.019132,-10.71625 -0.323586,-2.70463 0.02808,-4.662362 1.19534,-6.654572 0.744071,-1.26993 2.726233,-3.09701 4.149541,-3.82489 3.650628,-1.86693 11.155757,-1.73089 17.536717,0.31786 4.09065,1.3134 6.62262,3.12085 8.00494,5.71434 1.3405,2.515042 1.35269,4.130142 0.0585,7.754552 -0.18187,0.50932 -0.49345,1.40229 -0.6924,1.98437 -0.88229,2.58137 -4.41609,6.11044 -8.066,8.0552 -4.36829,2.32752 -7.81336,3.04479 -10.268652,2.13796 z m 4.765742,-0.79297 c 4.30588,-1.4426 7.48545,-3.33422 10.13289,-6.02833 1.52313,-1.54999 3.18055,-3.75281 2.97688,-3.95648 -0.0566,-0.0567 -0.55113,0.20112 -1.09885,0.57282 -1.03218,0.70045 -3.24016,1.46701 -4.22556,1.46701 -1.29593,0 -3.40851,-0.86905 -4.43092,-1.82275 -0.90521,-0.84437 -1.07793,-1.18204 -1.1742,-2.2956 -0.24623,-2.84804 2.55692,-4.92109 4.96817,-3.67419 1.0044,0.5194 1.26793,1.22454 1.10185,2.94823 -0.12828,1.33124 -0.10496,1.39009 0.75972,1.91724 2.71014,1.65225 5.24605,-0.51397 5.24605,-4.48126 0,-2.12563 -0.59674,-3.534562 -2.15341,-5.084282 -2.72141,-2.70927 -8.14403,-4.53807 -15.17444,-5.11763 -7.177192,-0.59165 -12.407487,2.9071 -12.769098,8.541772 -0.113137,1.76293 -0.06714,2.00885 0.485837,2.59746 0.720415,0.76685 1.842413,0.85088 2.446616,0.18325 0.232411,-0.25681 0.542544,-1.00095 0.689184,-1.65365 0.509252,-2.266682 2.516635,-2.852642 4.156098,-1.21317 0.789343,0.78934 0.899584,1.06598 0.899584,2.25745 0,2.47676 -0.982604,3.81282 -3.317746,4.51121 -1.462032,0.43725 -3.01823,-0.01 -4.408864,-1.26594 -1.008007,-0.91067 -1.06917,-0.93233 -0.893988,-0.31649 0.428662,1.50692 2.064651,4.46394 3.250632,5.87546 0.697908,0.83064 2.124514,2.20187 3.170236,3.0472 2.014441,1.6284 5.705419,3.76111 6.526329,3.77102 0.26958,0.003 1.54623,-0.3479 2.837,-0.78035 z m -3.49921,-0.98194 c -0.43904,-1.24167 -0.44825,-9.73049 -0.0123,-11.32866 0.23048,-0.84493 0.25901,-0.33808 0.14146,2.51354 -0.0819,1.98715 -0.0123,4.90729 0.15697,6.58183 0.16731,1.65547 0.25173,3.06243 0.18758,3.12658 -0.0641,0.0642 -0.27732,-0.33784 -0.47373,-0.89329 z m -20.553222,1.60025 c 0.05227,-0.27143 0.212469,-0.46373 0.355997,-0.42735 0.384547,0.0975 0.317343,0.66471 -0.09504,0.80217 -0.231826,0.0773 -0.322848,-0.0535 -0.260959,-0.37482 z m 4.453416,-2.19124 c 0,-0.325 0.170838,-0.55122 0.416275,-0.55122 0.24639,0 0.381363,0.18002 0.330729,0.4411 -0.128733,0.66378 -0.747004,0.75492 -0.747004,0.11012 z m 41.539586,0.11024 c 0,-0.26548 0.17353,-0.40225 0.44421,-0.35013 0.59,0.11363 0.6027,0.58419 0.0188,0.69664 -0.28961,0.0558 -0.46302,-0.074 -0.46302,-0.34651 z M 67.993847,112.3606 c -0.447446,-3.19584 1.168463,-6.07721 4.34279,-7.74373 1.597672,-0.83878 2.905342,-1.19344 5.378805,-1.45878 2.891168,-0.31016 4.741255,-1.28747 6.05858,-3.200442 5.288274,-7.67947 6.273444,-8.66214 14.723696,-14.68637 4.519472,-3.22196 6.582192,-6.5402 7.807792,-12.56022 0.0741,-0.3638 0.0854,0.0529 0.0252,0.92604 -0.12366,1.7932 -1.07236,4.79022 -2.13347,6.73983 -1.09138,2.00523 -3.28907,4.11202 -7.783509,7.46158 -6.111172,4.55445 -7.562711,6.11384 -13.19478,14.175162 -1.347111,1.92815 -2.511498,3.50573 -2.587528,3.50573 -0.07603,0 0.298427,-0.78083 0.832125,-1.73517 l 0.970362,-1.73517 -1.294043,0.65574 c -0.715869,0.36276 -2.196721,0.78129 -3.314381,0.93675 -2.838105,0.39474 -5.23895,1.42385 -6.932343,2.97152 -1.645739,1.50411 -2.243479,2.79029 -2.504309,5.38862 l -0.185919,1.85208 z m 11.08851,0.30068 c -0.09057,-0.14655 0.0266,-0.33985 0.260379,-0.42956 0.506584,-0.1944 0.788913,0.0198 0.545405,0.41382 -0.219704,0.35549 -0.591319,0.36275 -0.805784,0.0157 z m 4.499072,-1.32105 c -0.10561,-0.17088 -0.07296,-0.42975 0.07256,-0.57527 0.176389,-0.17639 0.32859,-0.16102 0.456601,0.0461 0.10561,0.17088 0.07296,0.42975 -0.07257,0.57527 -0.176388,0.17639 -0.328589,0.16102 -0.4566,-0.0461 z M 139.80723,98.228818 c -4.26645,-1.18717 -7.9741,-4.58124 -9.27505,-8.49058 -0.48878,-1.46877 -0.56316,-2.14806 -0.45087,-4.11746 0.11585,-2.03179 0.26948,-2.63165 1.10908,-4.33048 2.28206,-4.61743 6.44254,-6.96309 11.84725,-6.67941 1.89164,0.0993 2.558,0.26922 4.30031,1.09664 3.52627,1.67461 6.14389,4.84597 7.16432,8.67985 0.73723,2.7699 0.33681,6.37519 -0.85423,7.69128 -0.80096,0.88506 -0.93973,0.5465 -0.75373,-1.83895 0.32507,-4.16887 -0.98132,-8.09208 -3.54988,-10.66063 -2.08328,-2.08329 -5.47789,-3.46582 -8.33786,-3.39578 l -1.33347,0.0327 1.71979,0.24421 c 3.59099,0.50991 6.66383,2.73608 8.11707,5.88052 0.65692,1.4214 0.74523,1.91671 0.73612,4.12871 -0.008,1.97895 -0.13874,2.83692 -0.614,4.03401 -0.79726,2.00819 -2.85939,4.23911 -4.90858,5.31036 -1.52167,0.79548 -1.76949,0.84209 -4.47785,0.84209 h -2.86703 l 1.01495,0.45324 c 2.79297,1.24724 7.10396,1.32143 9.62598,0.16567 1.82656,-0.83706 3.30074,-2.11129 3.97764,-3.43813 0.64693,-1.2681 0.80993,-1.29965 0.43702,-0.0846 -0.4503,1.46721 -1.89115,2.92696 -3.83232,3.8826 -1.6128,0.79398 -2.00452,0.8743 -4.55296,0.93365 -1.87394,0.0436 -3.26494,-0.0677 -4.2417,-0.33947 z m 3.93425,-5.54578 c 0.30183,-0.51156 0.87174,-1.0529 1.26646,-1.20298 l 0.71768,-0.27286 -0.84033,-0.51103 c -0.46218,-0.28107 -1.00052,-0.90059 -1.19632,-1.37672 l -0.356,-0.86568 -0.4536,0.87137 c -0.24948,0.47925 -0.74553,1.00438 -1.10233,1.16695 -0.81459,0.37115 -0.81683,0.57828 -0.0102,0.94579 0.35546,0.16196 0.78952,0.70857 0.97919,1.23309 0.18738,0.5182 0.36455,0.94218 0.3937,0.94218 0.0291,0 0.29996,-0.41855 0.60178,-0.93011 z m -1.72576,-6.86984 c 0.074,-0.19289 -0.029,-0.57063 -0.22887,-0.83944 -0.35109,-0.47213 -0.38262,-0.46983 -0.92782,0.0677 -0.51797,0.51072 -0.52947,0.59136 -0.13989,0.98094 0.45737,0.45737 1.07929,0.35701 1.29658,-0.20923 z m -3.89903,-1.17307 c 1.85328,-0.8416 2.64628,-2.66021 1.83993,-4.21953 -0.81203,-1.57029 -2.78138,-2.05052 -4.59354,-1.12013 -2.37777,1.22076 -2.5298,4.28862 -0.26778,5.40341 1.12514,0.5545 1.68602,0.54267 3.02139,-0.0637 z m -57.974845,6.22166 c -0.582083,-0.18409 -1.415521,-0.5235 -1.852083,-0.75424 -1.522537,-0.80474 -3.571875,-3.4072 -3.571875,-4.53593 0,-0.21719 -0.252143,-0.82224 -0.560317,-1.34456 -1.161953,-1.96936 -0.8601,-5.92171 0.682113,-8.93133 2.871386,-5.6035 9.418633,-8.0978 14.694871,-5.59831 4.147761,1.96491 6.538013,6.55046 5.813995,11.15378 -0.952108,6.05353 -6.002724,10.41262 -12.006979,10.363 -1.177765,-0.01 -2.617641,-0.16832 -3.199725,-0.35241 z m 5.376551,-0.38875 c 0.222858,-0.1413 -0.182393,-0.27647 -1.118576,-0.37309 -5.012179,-0.5173 -8.312451,-5.88608 -6.931592,-11.2761 1.205986,-4.70743 4.355328,-7.45961 9.071138,-7.92718 l 2.069146,-0.20516 -1.282152,-0.2147 c -5.150224,-0.8624 -10.35667,3.18264 -11.94493,9.28039 -0.501097,1.92384 -0.515245,5.12797 -0.02779,6.2946 0.770271,1.84352 2.998675,3.73603 5.185084,4.40351 0.907762,0.27713 4.550114,0.2901 4.979676,0.0177 z m 5.014845,-5.45545 c 0.733965,-0.32556 0.748037,-0.57867 0.04458,-0.80193 -0.299326,-0.095 -0.736824,-0.57661 -0.972217,-1.07024 l -0.427986,-0.8975 -0.482382,0.79322 c -0.265311,0.43627 -0.780355,0.92898 -1.144543,1.09491 l -0.66216,0.3017 0.768594,0.46741 c 0.469252,0.28537 0.838651,0.78638 0.948472,1.28639 l 0.179878,0.81898 0.579475,-0.86588 c 0.318711,-0.47623 0.844441,-0.98341 1.168289,-1.12706 z m -2.853567,-5.02712 c 0.395783,-0.47688 0.16968,-1.19399 -0.376466,-1.19399 -0.568814,0 -0.998464,0.89769 -0.613771,1.28238 0.402367,0.40237 0.597393,0.38496 0.990237,-0.0884 z M 85.2653,78.345478 c 0.383558,-0.28006 0.915205,-0.94728 1.181438,-1.48273 0.879244,-1.76833 -0.229089,-3.62252 -2.165347,-3.62252 -2.713222,0 -4.561297,3.43876 -2.796513,5.20354 0.588149,0.58815 0.846162,0.66303 1.882308,0.54624 0.660404,-0.0744 1.514555,-0.36448 1.898114,-0.64453 z m 46.19916,-6.27838 c -0.55311,-0.55311 -0.66804,-0.85994 -0.53185,-1.41987 0.69662,-2.86403 4.58811,-5.08369 7.52583,-4.29264 1.11483,0.30019 1.87612,1.09487 1.87612,1.95839 0,1.29847 -4.16708,3.82049 -7.08291,4.28675 -0.94216,0.15066 -1.17257,0.082 -1.78719,-0.53263 z m 4.72081,-0.93793 c 3.41584,-1.42624 4.43597,-2.6534 3.21813,-3.87123 -1.64258,-1.64258 -6.29803,-0.0714 -7.69142,2.59571 -1.27219,2.43516 0.49151,2.93806 4.47329,1.27552 z m -29.82965,-1.7254 c -0.37119,-2.44719 -0.68354,-3.25188 -1.90777,-4.914871 -2.08266,-2.829091 -2.38833,-4.196387 -1.39628,-6.245678 0.53047,-1.095822 2.42559,-2.99466 2.98878,-2.99466 0.14903,0 -0.34525,0.612996 -1.0984,1.362213 -2.19251,2.181044 -2.47785,4.277143 -0.87318,6.414303 1.58923,2.116593 2.16523,3.307983 2.43401,5.034383 0.14846,0.95357 0.22123,1.94379 0.16171,2.2005 -0.0595,0.2567 -0.1985,-0.12858 -0.30887,-0.85619 z m -11.952723,-1.1603 c -1.597405,-1.18183 -3.75805,-3.528161 -3.941636,-4.280387 -0.479113,-1.963112 2.500338,-2.688246 4.698296,-1.143463 1.453793,1.021764 2.302531,2.52783 2.308145,4.09575 0.0076,2.12259 -1.252728,2.66874 -3.064805,1.3281 z m 2.3888,0.0831 c 0.575346,-0.57535 0.519671,-1.84837 -0.140478,-3.21206 -0.7615,-1.573046 -2.053521,-2.506378 -3.686869,-2.663322 -3.280221,-0.315187 -2.643522,2.045354 1.422609,5.274282 1.413702,1.12262 1.78932,1.21651 2.404738,0.6011 z m 11.666273,95.632272 c 1.70986,-1.5761 3.8726,-4.57667 3.67322,-5.09623 -0.09,-0.23458 -0.32272,-0.42651 -0.51712,-0.42651 -0.45348,0 -3.15298,3.44328 -3.98181,5.07889 -0.9815,1.9369 -0.86311,2.00055 0.82571,0.44385 z m -55.364092,-0.72035 c 2.101208,-1.63589 3.918001,-2.68573 4.647775,-2.68573 0.522804,0 0.572067,-0.1367 0.572067,-1.5875 0,-0.87312 -0.0585,-1.5875 -0.130003,-1.5875 -0.0715,0 -0.6567,0.38696 -1.300443,0.8599 -0.643743,0.47294 -2.192585,1.55156 -3.441873,2.39694 l -2.271432,1.53704 v 1.17494 c 0,0.64621 0.06209,1.17493 0.137972,1.17493 0.07588,0 0.879556,-0.57736 1.785937,-1.28302 z m 0.255428,-3.37968 c 5.231102,-3.52924 4.97016,-3.2131 5.123251,-6.20693 0.07008,-1.37051 0.249534,-3.35357 0.398783,-4.40682 0.149249,-1.05324 0.196877,-2.03551 0.105839,-2.18281 -0.293017,-0.47411 -1.608026,-0.28636 -2.939157,0.41964 -2.830228,1.50109 -6.455553,4.43183 -6.455553,5.21873 0,0.33236 0.123954,0.29657 0.595313,-0.17188 1.888148,-1.87649 6.353517,-4.44756 6.85443,-3.94665 0.156658,0.15666 0.138256,1.12769 -0.04936,2.6045 -0.164529,1.29509 -0.357305,2.86673 -0.428392,3.49253 -0.124369,1.09486 -0.235928,1.2171 -2.955308,3.23828 -1.554333,1.15526 -3.099495,2.17559 -3.433694,2.2674 -0.718802,0.19747 -1.125193,-0.0907 -0.592342,-0.42001 0.313834,-0.19396 0.316003,-0.29774 0.01383,-0.66183 -0.197101,-0.2375 -0.50069,-0.99071 -0.674642,-1.67382 l -0.316275,-1.242 -0.327061,1.93378 c -0.287134,1.69771 -0.216601,3.47007 0.162506,4.08347 0.327895,0.53055 1.443331,-10e-4 4.917827,-2.34558 z m 0.532643,-3.07421 c 1.845291,-1.39242 2.050521,-1.63645 2.050521,-2.43816 0,-0.48998 0.178573,-1.82408 0.396829,-2.96467 0.509153,-2.66079 0.510521,-2.89433 0.01455,-2.48271 -0.74127,0.6152 -1.279332,2.87907 -1.141646,4.80342 0.143871,2.01079 -0.106671,2.18836 -0.558104,0.39556 -0.319125,-1.26736 -0.178821,-2.50118 0.41963,-3.69018 0.208228,-0.4137 0.333794,-0.79699 0.279035,-0.85175 -0.138791,-0.13879 -4.223449,2.64666 -4.74734,3.23736 -0.499712,0.56343 -1.276947,2.75221 -1.278843,3.60135 -7.19e-4,0.32234 0.198921,1.14474 0.443645,1.82755 l 0.444954,1.24149 0.813126,-0.56598 c 0.447219,-0.3113 1.73586,-1.26227 2.863647,-2.11328 z m 40.921368,1.86805 c 0.434329,-1.24592 0.0904,-2.45682 -1.056928,-3.72121 -0.847722,-0.93422 -1.066948,-1.05809 -1.289621,-0.72868 -0.635144,0.9396 -0.09209,3.65052 0.965342,4.81897 0.627458,0.69333 1.050231,0.58036 1.381207,-0.36908 z m -3.152096,-4.15291 c 0,-0.71978 0.676185,-1.1776 1.451772,-0.98294 0.59163,0.14849 0.664894,0.0852 0.664894,-0.57439 0,-0.51082 -0.45861,-1.29378 -1.475247,-2.51858 -0.811385,-0.97752 -1.581103,-1.77732 -1.710482,-1.77732 -0.810317,0 -1.058923,3.06084 -0.380488,4.68456 0.665971,1.5939 1.449551,2.22564 1.449551,1.16867 z m -39.371366,-6.28931 c -0.292423,-2.73283 -0.14492,-6.4036 0.312063,-7.766 0.598423,-1.78408 1.756098,-3.90964 3.095769,-5.68402 0.555209,-0.73537 1.251519,-1.87065 1.547357,-2.52286 0.295838,-0.65221 0.540502,-1.03109 0.543698,-0.84196 0.0078,0.4627 -0.576389,1.56157 -2.000976,3.76375 -1.1512,1.77958 -2.898976,5.4946 -2.685451,5.70813 0.05789,0.0579 0.480956,-0.41792 0.940154,-1.05734 1.691124,-2.35485 4.013932,-4.36162 6.4739,-5.59309 1.297481,-0.64952 2.525548,-1.18094 2.729037,-1.18094 0.492609,0 0.473123,-0.79169 -0.02859,-1.16146 -0.312366,-0.23022 -0.344213,-0.48238 -0.147251,-1.16588 0.227477,-0.78941 0.190536,-0.89525 -0.389441,-1.11575 -1.113822,-0.42348 -3.641196,-1.01989 -5.150156,-1.21535 -1.332388,-0.17259 -1.424765,-0.15168 -1.094501,0.24768 0.19839,0.2399 0.441904,0.386 0.541143,0.32467 0.09924,-0.0613 0.110683,0.52218 0.02543,1.29669 -0.128868,1.17078 -0.474808,1.89269 -2.051748,4.28162 -3.382256,5.12382 -4.289158,7.81841 -4.295581,12.76304 l -0.0039,3.01047 0.859896,-0.66843 c 0.67127,-0.5218 0.842185,-0.83394 0.779156,-1.42297 z m 38.10576,-0.0931 c 0.26976,0 0.787656,0.19472 1.15088,0.43271 0.767047,0.50259 0.851233,0.45591 1.05372,-0.5843 0.124497,-0.63955 -0.116981,-1.1634 -1.386306,-3.00734 -0.845385,-1.22809 -1.679013,-2.27752 -1.852508,-2.33206 -0.408516,-0.12843 -1.139764,2.31846 -1.139764,3.81386 0,0.62549 0.199813,1.63663 0.44403,2.24699 l 0.444029,1.10974 0.397723,-0.8398 c 0.235989,-0.4983 0.597174,-0.8398 0.888196,-0.8398 z m 48.966545,-4.95134 c 2.21381,-2.5909 4.65856,-5.56895 5.43279,-6.6179 1.4335,-1.94216 5.63607,-8.79615 7.05414,-11.50463 0.76504,-1.4612 0.77274,-1.51471 0.34647,-2.40861 -0.56278,-1.18015 -2.01073,-2.82794 -2.48498,-2.82794 -0.20281,0 -1.4704,0.81695 -2.81686,1.81544 -6.95474,5.15741 -11.58979,7.45019 -17.43021,8.62204 l -0.69459,0.13936 1.12194,2.23549 c 0.61706,1.22952 1.46541,3.43314 1.88521,4.89694 0.4198,1.46379 0.8289,2.63218 0.9091,2.5964 0.34168,-0.15241 5.13321,-5.43912 5.71035,-6.30048 0.54458,-0.81277 0.59267,-1.0576 0.34646,-1.76389 -0.33374,-0.95734 0.0293,-1.83371 1.5635,-3.77463 1.24446,-1.57434 1.89964,-2.10367 2.61267,-2.11079 0.98761,-0.01 1.50402,1.12318 1.47158,3.22873 l -0.0284,1.84457 1.81424,-2.46606 c 0.99783,-1.35633 2.17765,-3.17071 2.62183,-4.03196 1.04071,-2.0179 1.04578,-1.47608 0.008,0.81356 -1.67922,3.70343 -4.01093,6.71038 -9.94414,12.8238 -3.81011,3.92585 -5.63191,5.98537 -5.54819,6.27217 0.0686,0.23486 0.26578,1.42333 0.43828,2.64105 l 0.31363,2.21402 0.63625,-0.81297 c 0.34994,-0.44714 2.44754,-2.9328 4.66135,-5.52371 z m -101.554751,3.2538 c 2.382597,-2.96231 5.267844,-5.71279 8.047728,-7.67183 2.12518,-1.49765 6.586087,-3.85983 7.28919,-3.85983 0.76463,0 3.327309,-4.03896 3.327309,-5.24407 0,-0.89102 -1.120183,-1.23551 -2.797174,-0.86021 -5.835842,1.306 -13.342597,6.9881 -18.403801,13.9304 -1.347627,1.8485 -1.658687,2.57583 -1.508975,3.52832 0.06778,0.43124 0.463694,-0.005 1.718401,-1.89132 3.059945,-4.6015 8.23058,-9.50975 12.657174,-12.01488 3.238445,-1.83272 7.185664,-2.99913 7.643329,-2.25862 0.07366,0.11919 -0.195061,0.16843 -0.597165,0.10941 -0.973705,-0.14291 -4.334627,1.00689 -6.285738,2.15041 -4.907284,2.87608 -10.552294,8.36691 -14.197328,13.80957 -0.828267,1.23675 -0.916477,2.09302 -0.255286,2.47813 0.936779,0.54562 1.387285,0.25012 3.362336,-2.20548 z m 16.65059,1.12495 c 0.743698,-0.46043 1.817376,-0.97632 2.38595,-1.14643 0.941251,-0.28161 1.063574,-0.42572 1.366778,-1.61026 0.570654,-2.22937 1.428939,-4.13158 2.712789,-6.01233 1.503557,-2.20259 2.130906,-3.39787 2.34486,-4.46764 l 0.162235,-0.81118 -2.090425,1.08796 c -2.60949,1.3581 -4.314075,2.75623 -6.121472,5.02094 -1.950783,2.44438 -2.715828,4.06478 -2.715828,5.75225 0,1.45876 0.241621,3.02383 0.466831,3.02383 0.07486,0 0.744583,-0.37671 1.488282,-0.83714 z m 79.575401,-5.18213 c 0.33614,-0.5457 2.53121,-2.96199 4.87793,-5.36952 2.34671,-2.40753 4.41098,-4.64682 4.58726,-4.9762 0.46811,-0.87468 0.50775,-4.61018 0.0547,-5.15707 -0.80833,-0.9758 -1.35481,-0.52592 -3.9059,3.21546 -0.48756,0.71505 -0.56979,1.10628 -0.44822,2.13274 0.21277,1.79647 -0.47089,2.95407 -3.7477,6.34578 -2.83051,2.92976 -2.83381,2.93599 -2.36775,4.47027 0.15376,0.5062 0.288,0.4127 0.94966,-0.66146 z M 89.304832,142.0319 c 0.274716,0 0.703373,0.23812 0.952571,0.52917 0.761294,0.88912 2.187568,0.54361 2.187568,-0.52994 0,-0.6129 -1.95518,-4.56393 -2.469384,-4.99013 -0.387967,-0.32157 -0.521549,-0.17809 -1.23164,1.32292 -0.619585,1.30969 -0.79344,2.03618 -0.782807,3.2711 0.01309,1.5204 0.03122,1.56234 0.428938,0.99219 0.228398,-0.32742 0.640037,-0.59531 0.914754,-0.59531 z m -45.49911,-9.22911 1.499294,-1.11991 -1.308854,-1.72923 c -4.659703,-6.15632 -5.081285,-13.26033 -1.159554,-19.53946 1.211843,-1.9403 3.756936,-4.61001 5.555236,-5.82725 1.425729,-0.96505 0.333168,-0.64081 -2.093933,0.62143 -2.303193,1.19779 -5.025131,3.86117 -6.181798,6.04879 -1.894793,3.58366 -2.432509,8.50324 -1.385351,12.6746 0.288957,1.15107 1.112139,3.28347 1.829292,4.73868 0.895674,1.81745 1.100515,2.39732 0.654258,1.85208 -0.852849,-1.042 -2.316182,-4.09229 -2.9194,-6.08541 -0.630283,-2.08256 -0.639148,-6.99249 -0.0167,-9.24916 0.239122,-0.86693 0.390587,-1.62042 0.336588,-1.67442 -0.161459,-0.16145 -1.381997,2.06147 -2.237501,4.07509 -1.498123,3.52617 -1.97436,5.74339 -1.982455,9.22974 -0.0087,3.76632 0.574282,6.19266 2.272314,9.45649 l 1.081148,2.0781 2.27906,-2.21513 c 1.253483,-1.21832 2.953743,-2.71908 3.778356,-3.33503 z m 48.392059,4.72188 c 0.281475,-0.15064 0.511773,-0.44704 0.511773,-0.65867 0,-0.69299 -1.348213,-3.77081 -1.851141,-4.22596 -0.4672,-0.42281 -0.526789,-0.3914 -1.206752,0.6361 -0.393407,0.59448 -0.870783,1.7498 -1.060837,2.56738 l -0.345553,1.48652 0.629993,-0.59184 c 0.7789,-0.73174 1.730653,-0.5655 2.242969,0.39177 0.409408,0.76498 0.396495,0.76026 1.079548,0.3947 z m 0.776356,-5.1168 c 0,-0.85816 -0.713192,-2.813 -1.237753,-3.39263 -0.547092,-0.60453 -1.027385,-0.25524 -1.708783,1.2427 -0.63949,1.40581 -0.651089,2.08581 -0.03003,1.76037 0.564444,-0.29578 1.6057,0.0558 1.820109,0.61452 0.258043,0.67245 1.156453,0.49769 1.156453,-0.22496 z m -45.785095,-1.81018 c 0.911425,-0.52455 1.004506,-0.67376 0.883903,-1.41696 -0.112261,-0.69178 -0.008,-0.92097 0.623642,-1.37073 1.145509,-0.81567 2.853169,-1.18793 5.780674,-1.26016 1.716082,-0.0423 3.064222,-0.22461 3.836459,-0.51868 0.654843,-0.24937 2.07341,-0.53145 3.152371,-0.62685 l 1.961746,-0.17345 0.627291,-1.81282 c 0.34501,-0.99704 0.736906,-2.96157 0.870878,-4.36562 l 0.243587,-2.55281 -1.509707,-1.54431 c -3.041856,-3.11155 -6.596407,-5.16271 -10.231285,-5.90397 -2.767225,-0.56432 -5.005922,-0.22592 -7.995494,1.20858 -2.198019,1.05468 -2.239286,1.09251 -2.976486,2.72856 -0.941923,2.09039 -1.340819,3.96145 -1.340819,6.28926 0,2.60847 0.413808,4.29738 1.717912,7.01146 1.014025,2.11037 2.835906,4.89479 3.202727,4.89479 0.07364,0 0.592315,-0.26383 1.152601,-0.58629 z m 2.410821,-1.2751 c 0.613183,-0.32817 0.671326,-1.00441 0.105044,-1.22171 -0.518226,-0.19886 -1.45543,0.63232 -1.266912,1.12359 0.1699,0.44275 0.470492,0.46813 1.161868,0.0981 z m 14.421949,-1.78718 0.61769,-1.64309 h -1.603346 c -1.775241,0 -4.335075,0.58238 -5.749597,1.30807 l -0.920312,0.47215 1.70134,0.1914 c 0.935738,0.10528 2.415716,0.46409 3.288841,0.79737 0.873125,0.33328 1.691044,0.58599 1.817597,0.56157 0.126554,-0.0244 0.508058,-0.78377 0.847787,-1.68747 z m -11.571499,0.73474 c 0.92247,-0.28916 1.934502,-0.52757 2.248959,-0.5298 0.676407,-0.005 1.4219,-0.42461 1.181284,-0.66522 -0.175209,-0.17521 -4.65222,0.29737 -5.348549,0.56457 -0.319869,0.12275 -0.335103,0.24842 -0.07969,0.6574 0.173677,0.2781 0.316902,0.5041 0.318277,0.50222 0.0014,-0.002 0.75725,-0.24 1.67972,-0.52917 z m 11.510691,-15.60817 c -0.363525,-1.23628 -0.728288,-3.16993 -0.810585,-4.29699 l -0.149632,-2.04919 -1.615929,-0.75739 c -3.110009,-1.45765 -4.34613,-1.75936 -7.17218,-1.75058 -2.351299,0.007 -2.816483,0.0911 -4.178788,0.75231 -1.733819,0.84158 -4.119774,2.93857 -5.442734,4.78358 l -0.890272,1.24157 1.419439,-0.79132 c 3.887179,-2.16705 8.11993,-2.19422 12.531938,-0.0804 2.209127,1.05839 5.974536,3.85295 6.490496,4.81703 0.546615,1.02136 0.486604,0.40439 -0.181753,-1.86858 z M 170.10554,100.45945 c 0.58504,-0.14655 1.93076,-0.906032 2.9905,-1.687732 1.05974,-0.7817 2.48607,-1.62469 3.16964,-1.87329 4.25362,-1.54702 5.85509,-2.77966 6.39728,-4.92393 0.59974,-2.37187 1.17295,-3.54771 2.19509,-4.50282 l 1.05102,-0.98209 -1.11606,-1.33302 c -0.61383,-0.73315 -1.22579,-1.33301 -1.35989,-1.33301 -0.36739,0 -1.26486,1.58151 -1.57653,2.77813 -1.21092,4.64922 -1.7669,5.4048 -4.34807,5.90916 -1.06005,0.20713 -2.10484,0.66155 -3.14457,1.3677 -2.99492,2.03406 -5.28969,1.01976 -4.27627,-1.89015 1.03704,-2.97776 0.002,-4.10623 -4.45473,-4.85455 -0.92009,-0.15451 -1.00793,-0.12216 -0.8393,0.30909 0.98568,2.52064 2.25942,9.29997 2.26226,12.04055 l 0.002,1.504722 0.99219,-0.13116 c 0.54571,-0.0721 1.47085,-0.25106 2.05588,-0.3976 z m 2.85631,-6.360082 c 0.31785,-0.16914 1.00369,-0.64867 1.52407,-1.06562 0.6726,-0.53892 1.43756,-0.83426 2.64583,-1.02155 2.09448,-0.32464 2.94361,-1.1253 3.55694,-3.35392 0.71744,-2.60689 1.18682,-3.7056 1.87866,-4.39744 0.88315,-0.88315 0.77301,-1.06109 -2.7322,-4.41418 -6.75838,-6.46506 -12.49151,-9.46413 -16.62435,-8.69641 -1.69537,0.31494 -3.77736,1.33696 -4.713,2.31356 l -0.73835,0.77067 1.15885,1.81798 c 0.63737,0.99989 1.80008,2.94907 2.5838,4.33152 0.78373,1.38245 1.45581,2.55762 1.49351,2.6115 0.0377,0.0539 0.68101,-0.54143 1.42958,-1.32292 l 1.36103,-1.42087 -1.21258,1.76177 -1.21258,1.76178 0.65424,1.47937 c 0.63013,1.42482 0.69163,1.47937 1.6679,1.47937 1.58883,0 3.76403,0.76155 4.61995,1.61747 0.85675,0.85675 0.88885,1.54324 0.18631,3.98444 -0.29341,1.01955 -0.29505,1.30946 -0.009,1.65365 0.40721,0.49065 1.66179,0.54617 2.48179,0.10983 z M 68.367887,84.465988 c 0,-1.04808 1.798633,-5.67176 2.954415,-7.5948 0.704176,-1.17164 1.226024,-2.18455 1.159664,-2.25091 -0.285394,-0.28539 -2.107045,0.29303 -2.658003,0.84399 -0.330808,0.3308 -0.685557,1.09918 -0.788331,1.7075 -0.228737,1.35388 -0.781041,1.97001 -1.555521,1.73527 -0.987047,-0.29916 -2.252915,-1.41238 -2.918899,-2.56692 -0.554693,-0.96161 -0.656416,-1.52453 -0.737293,-4.08006 -0.05934,-1.87508 -0.0052,-2.80612 0.147424,-2.53346 0.132685,0.2371 0.225814,1.26677 0.206952,2.28816 -0.01886,1.02139 0.101759,2.31117 0.268046,2.86619 0.567552,1.89432 3.235737,4.36797 3.859199,3.57783 0.140506,-0.17807 0.323724,-0.85954 0.407153,-1.51438 0.214295,-1.68205 1.317294,-2.64507 3.032805,-2.64792 1.232376,-0.002 1.286067,-0.0384 3.325949,-2.25387 1.140344,-1.23849 3.55098,-3.51776 5.356969,-5.06506 2.348006,-2.011671 3.209768,-2.902242 3.024439,-3.12555 -0.517731,-0.623828 -2.867009,-1.719516 -4.524556,-2.110223 -2.143636,-0.505286 -5.908667,-0.512439 -8.311454,-0.01579 -1.70751,0.352937 -1.951375,0.491989 -3.124068,1.781344 -0.699592,0.769188 -2.231784,2.623659 -3.404873,4.121039 l -2.132887,2.72252 0.292886,1.11394 c 0.161087,0.61267 0.26453,2.06644 0.229872,3.23061 -0.07503,2.52045 0.174725,3.12787 2.410212,5.86168 0.851336,1.04111 1.868544,2.4401 2.260461,3.10886 0.721916,1.23185 1.219439,1.55825 1.219439,0.80001 z"
       id="path1" /></g></svg>
